<svg id="svg" version="1.1" xmlns="http://www.w3.org/2000/svg" xmlns:xlink="http://www.w3.org/1999/xlink" width="400" height="236.36363636363637" viewBox="0, 0, 400,236.36363636363637"><g id="svgg"><path id="path0" d="M0.000 118.167 L 0.000 236.333 200.000 236.333 L 400.000 236.333 400.000 118.167 L 400.000 0.000 200.000 0.000 L 0.000 0.000 0.000 118.167 M84.627 70.042 L 84.583 76.083 78.627 76.127 L 72.671 76.171 72.627 82.127 L 72.583 88.083 66.583 88.083 L 60.583 88.083 60.541 76.042 L 60.498 64.000 72.584 64.000 L 84.671 64.000 84.627 70.042 M219.342 98.240 C 223.198 98.980,226.219 100.662,229.458 103.871 C 231.166 105.563,231.205 105.362,228.884 106.790 L 226.935 107.988 225.858 106.901 C 217.645 98.607,203.488 102.521,200.512 113.909 C 196.413 129.595,212.670 141.254,225.083 131.532 L 226.000 130.814 226.000 126.742 L 226.000 122.670 219.125 122.627 L 212.250 122.583 212.250 120.333 L 212.250 118.083 221.667 118.083 L 231.083 118.083 231.127 125.351 L 231.170 132.619 229.877 133.855 C 218.824 144.413,200.098 139.879,195.605 125.557 C 191.411 112.188,199.484 99.610,213.333 97.934 C 214.386 97.806,218.057 97.994,219.342 98.240 M163.083 98.244 C 165.998 98.708,168.167 99.501,170.286 100.878 C 171.699 101.796,173.500 103.298,173.500 103.558 C 173.500 103.700,171.421 106.365,170.572 107.311 C 170.541 107.345,170.146 107.021,169.693 106.592 C 162.422 99.708,148.621 102.255,150.902 110.061 C 151.618 112.512,153.853 113.680,161.833 115.772 C 170.969 118.166,174.779 121.910,174.447 128.167 C 174.057 135.518,168.896 139.397,159.500 139.400 C 153.273 139.401,149.532 138.055,145.253 134.272 C 143.964 133.132,143.934 133.354,145.676 131.101 C 147.257 129.056,147.080 129.142,147.925 130.013 C 155.210 137.528,169.122 136.204,169.075 128.000 C 169.056 124.492,166.870 122.800,159.917 120.908 C 148.427 117.782,145.508 115.402,145.502 109.153 C 145.494 101.483,153.237 96.679,163.083 98.244 M94.667 118.667 L 94.667 138.833 92.083 138.833 L 89.500 138.833 89.500 118.778 C 89.500 107.747,89.550 98.672,89.611 98.611 C 89.672 98.550,90.835 98.500,92.194 98.500 L 94.667 98.500 94.667 118.667 M112.754 103.458 C 114.761 106.185,117.570 109.992,118.998 111.917 C 120.426 113.842,122.473 116.617,123.547 118.083 C 124.621 119.550,126.251 121.763,127.169 123.000 C 128.088 124.237,129.569 126.249,130.461 127.469 L 132.083 129.688 132.126 114.090 L 132.168 98.491 134.709 98.537 L 137.250 98.583 137.292 118.708 L 137.335 138.833 134.860 138.833 L 132.386 138.833 128.574 133.625 C 126.477 130.760,124.153 127.592,123.410 126.583 C 122.026 124.707,113.726 113.337,110.851 109.380 C 109.970 108.169,109.194 107.175,109.125 107.172 C 109.056 107.169,109.000 114.292,109.000 123.000 L 109.000 138.833 106.500 138.833 L 104.000 138.833 104.000 118.667 L 104.000 98.500 106.553 98.500 L 109.106 98.500 112.754 103.458 M186.959 118.708 L 187.001 138.833 184.417 138.833 L 181.833 138.833 181.833 118.662 L 181.833 98.491 184.375 98.537 L 186.917 98.583 186.959 118.708 M244.293 107.208 L 244.336 115.833 256.001 115.833 L 267.667 115.833 267.667 107.167 L 267.667 98.500 270.167 98.500 L 272.667 98.500 272.667 118.667 L 272.667 138.833 270.167 138.833 L 267.667 138.833 267.667 129.583 L 267.667 120.333 256.000 120.333 L 244.333 120.333 244.333 129.583 L 244.333 138.833 241.750 138.833 L 239.167 138.833 239.167 118.662 L 239.167 98.491 241.708 98.537 L 244.250 98.583 244.293 107.208 M309.796 100.875 L 309.843 103.167 303.421 103.167 L 297.000 103.167 297.000 121.004 L 297.000 138.842 294.458 138.796 L 291.917 138.750 291.874 120.960 L 291.832 103.171 285.541 103.127 L 279.250 103.083 279.203 101.009 C 279.177 99.868,279.194 98.837,279.240 98.717 C 279.308 98.538,282.114 98.506,294.537 98.541 L 309.750 98.583 309.796 100.875 M339.500 160.250 L 339.500 172.333 327.417 172.333 L 315.333 172.333 315.333 166.333 L 315.333 160.333 321.333 160.333 L 327.333 160.333 327.333 154.250 L 327.333 148.167 333.417 148.167 L 339.500 148.167 339.500 160.250 " stroke="none" fill="#343434" fill-rule="evenodd"></path><path id="path1" d="M60.667 70.000 L 60.667 76.000 66.667 76.000 L 72.667 76.000 72.667 70.000 L 72.667 64.000 66.667 64.000 L 60.667 64.000 60.667 70.000 M157.417 98.097 C 149.601 99.212,145.194 103.573,145.559 109.833 C 145.877 115.284,148.972 117.815,158.500 120.415 C 166.487 122.595,168.758 124.048,169.180 127.250 C 170.175 134.787,158.730 137.739,150.317 132.116 C 149.822 131.785,148.917 131.061,148.306 130.507 C 146.947 129.274,147.269 129.184,145.679 131.244 C 144.069 133.329,144.094 133.087,145.375 134.254 C 153.698 141.835,169.141 141.092,173.147 132.917 C 175.305 128.511,174.566 123.283,171.363 120.296 C 169.262 118.338,167.168 117.394,161.250 115.739 C 152.300 113.236,150.463 111.950,150.709 108.359 C 151.172 101.600,162.828 100.269,169.423 106.221 C 170.024 106.763,170.543 107.179,170.576 107.145 C 170.609 107.111,171.286 106.296,172.081 105.333 L 173.525 103.583 172.638 102.775 C 168.935 99.406,162.377 97.390,157.417 98.097 M211.417 98.314 C 199.146 100.584,192.015 112.541,195.501 125.000 C 199.564 139.520,218.605 144.395,229.875 133.802 L 231.000 132.745 231.000 125.456 L 231.000 118.167 221.667 118.167 L 212.333 118.167 212.333 120.331 L 212.333 122.496 219.208 122.540 L 226.083 122.583 226.128 126.616 C 226.179 131.229,226.350 130.679,224.417 132.123 C 214.986 139.166,201.861 133.435,199.989 121.456 C 197.597 106.148,214.780 96.160,225.621 106.557 L 226.993 107.872 228.288 107.072 C 229.000 106.632,229.869 106.094,230.218 105.878 L 230.852 105.484 229.989 104.487 C 225.610 99.433,218.372 97.027,211.417 98.314 M89.667 118.667 L 89.667 138.667 92.083 138.667 L 94.500 138.667 94.500 118.667 L 94.500 98.667 92.083 98.667 L 89.667 98.667 89.667 118.667 M104.000 118.667 L 104.000 138.667 106.499 138.667 L 108.998 138.667 109.041 122.764 L 109.083 106.861 113.075 112.305 C 115.271 115.300,120.508 122.456,124.713 128.208 L 132.359 138.667 134.763 138.667 L 137.167 138.667 137.167 118.667 L 137.167 98.667 134.750 98.667 L 132.333 98.667 132.333 114.250 C 132.333 122.821,132.274 129.833,132.202 129.833 C 132.130 129.833,130.294 127.415,128.122 124.458 C 125.950 121.502,121.986 116.121,119.312 112.500 C 116.639 108.879,113.251 104.285,111.784 102.292 L 109.116 98.667 106.558 98.667 L 104.000 98.667 104.000 118.667 M182.000 118.667 L 182.000 138.667 184.417 138.667 L 186.833 138.667 186.833 118.667 L 186.833 98.667 184.417 98.667 L 182.000 98.667 182.000 118.667 M239.167 118.667 L 239.167 138.667 241.667 138.667 L 244.167 138.667 244.167 129.500 L 244.167 120.333 255.917 120.333 L 267.667 120.333 267.667 129.500 L 267.667 138.667 270.167 138.667 L 272.667 138.667 272.667 118.667 L 272.667 98.667 270.167 98.667 L 267.667 98.667 267.667 107.250 L 267.667 115.833 255.917 115.833 L 244.167 115.833 244.167 107.250 L 244.167 98.667 241.667 98.667 L 239.167 98.667 239.167 118.667 M279.333 100.833 L 279.333 103.000 285.667 103.000 L 292.000 103.000 292.000 120.833 L 292.000 138.667 294.500 138.667 L 297.000 138.667 297.000 120.833 L 297.000 103.000 303.333 103.000 L 309.667 103.000 309.667 100.833 L 309.667 98.667 294.500 98.667 L 279.333 98.667 279.333 100.833 M327.333 166.333 L 327.333 172.333 333.333 172.333 L 339.333 172.333 339.333 166.333 L 339.333 160.333 333.333 160.333 L 327.333 160.333 327.333 166.333 " stroke="none" fill="#f4f4f4" fill-rule="evenodd"></path><path id="path2" d="M60.540 82.083 L 60.583 88.083 66.583 88.083 L 72.583 88.083 72.627 82.127 L 72.671 76.171 78.544 76.116 C 81.774 76.087,79.035 76.067,72.457 76.073 L 60.497 76.083 60.540 82.083 M214.547 97.956 C 214.985 97.990,215.660 97.990,216.047 97.955 C 216.434 97.920,216.075 97.892,215.250 97.892 C 214.425 97.893,214.109 97.922,214.547 97.956 M90.875 98.624 C 91.585 98.655,92.748 98.655,93.458 98.624 C 94.169 98.593,93.587 98.567,92.167 98.567 C 90.746 98.567,90.165 98.593,90.875 98.624 M104.833 98.613 C 107.065 98.733,109.296 98.740,109.225 98.625 C 109.182 98.556,107.970 98.514,106.532 98.532 C 105.093 98.549,104.329 98.585,104.833 98.613 M134.666 98.623 L 137.165 98.675 137.209 118.713 L 137.252 138.750 137.251 118.667 L 137.250 98.583 134.708 98.577 L 132.166 98.570 134.666 98.623 M184.332 98.623 L 186.832 98.675 186.875 118.713 L 186.919 138.750 186.918 118.667 L 186.917 98.583 184.375 98.577 L 181.833 98.570 184.332 98.623 M241.665 98.623 L 244.164 98.675 244.209 107.296 L 244.255 115.917 244.252 107.250 L 244.250 98.583 241.708 98.577 L 239.166 98.570 241.665 98.623 M268.875 98.624 C 269.585 98.655,270.748 98.655,271.458 98.624 C 272.169 98.593,271.587 98.567,270.167 98.567 C 268.746 98.567,268.165 98.593,268.875 98.624 M279.239 98.718 C 279.193 98.837,279.180 99.868,279.209 101.009 L 279.261 103.083 279.297 100.876 L 279.333 98.668 294.542 98.625 L 309.750 98.582 294.536 98.541 C 282.146 98.508,279.307 98.540,279.239 98.718 M291.914 120.917 C 291.914 130.725,291.934 134.713,291.958 129.779 C 291.983 124.845,291.983 116.820,291.958 111.946 C 291.934 107.071,291.914 111.108,291.914 120.917 M152.240 104.875 L 151.750 105.417 152.292 104.927 C 152.590 104.658,152.833 104.414,152.833 104.385 C 152.833 104.257,152.696 104.370,152.240 104.875 M216.958 118.125 C 219.548 118.151,223.785 118.151,226.375 118.125 C 228.965 118.099,226.846 118.078,221.667 118.078 C 216.487 118.078,214.369 118.099,216.958 118.125 M194.539 118.667 C 194.539 118.987,194.573 119.119,194.615 118.958 C 194.657 118.798,194.657 118.535,194.615 118.375 C 194.573 118.215,194.539 118.346,194.539 118.667 M244.245 129.583 C 244.245 134.717,244.266 136.841,244.292 134.304 C 244.317 131.766,244.317 127.566,244.292 124.970 C 244.266 122.374,244.245 124.450,244.245 129.583 M167.240 132.542 L 166.750 133.083 167.292 132.594 C 167.590 132.325,167.833 132.081,167.833 132.052 C 167.833 131.923,167.696 132.037,167.240 132.542 M200.417 133.667 C 200.868 134.125,201.275 134.500,201.321 134.500 C 201.367 134.500,201.035 134.125,200.583 133.667 C 200.132 133.208,199.725 132.833,199.679 132.833 C 199.633 132.833,199.965 133.208,200.417 133.667 M144.750 133.833 C 145.108 134.200,145.438 134.500,145.484 134.500 C 145.530 134.500,145.275 134.200,144.917 133.833 C 144.559 133.467,144.228 133.167,144.182 133.167 C 144.137 133.167,144.392 133.467,144.750 133.833 M214.629 139.622 C 215.021 139.657,215.621 139.657,215.963 139.621 C 216.304 139.585,215.983 139.557,215.250 139.557 C 214.517 139.558,214.237 139.587,214.629 139.622 M327.373 154.208 L 327.412 160.250 327.458 154.292 L 327.504 148.333 333.417 148.333 L 339.329 148.333 339.375 154.292 L 339.421 160.250 339.461 154.208 L 339.500 148.167 333.417 148.167 L 327.333 148.167 327.373 154.208 M315.333 166.333 L 315.333 172.333 321.333 172.333 L 327.333 172.333 327.333 166.333 L 327.333 160.333 321.333 160.333 L 315.333 160.333 315.333 166.333 " stroke="none" fill="#83837c" fill-rule="evenodd"></path><path id="path3" d="M60.540 69.948 C 60.512 74.188,60.554 76.014,60.683 76.093 C 60.784 76.156,66.221 76.151,72.766 76.083 L 84.667 75.959 84.667 69.979 L 84.667 64.000 78.667 64.000 L 72.667 64.000 72.667 70.000 L 72.667 76.000 66.669 76.000 L 60.671 76.000 60.625 69.958 L 60.579 63.917 60.540 69.948 M89.582 118.750 L 89.583 138.750 92.083 138.750 L 94.583 138.750 94.584 118.708 L 94.585 98.667 94.542 118.667 L 94.499 138.667 92.083 138.667 L 89.668 138.667 89.625 118.708 L 89.581 98.750 89.582 118.750 M132.207 114.135 C 132.175 126.518,132.124 129.662,131.958 129.569 C 131.793 129.475,131.792 129.497,131.956 129.673 C 132.330 130.076,132.335 129.823,132.292 114.152 L 132.248 98.583 132.207 114.135 M181.916 118.750 L 181.917 138.750 184.333 138.757 L 186.750 138.763 184.376 138.711 L 182.001 138.658 181.958 118.704 L 181.915 98.750 181.916 118.750 M214.629 102.456 C 215.021 102.491,215.621 102.490,215.963 102.454 C 216.304 102.419,215.983 102.390,215.250 102.390 C 214.517 102.391,214.237 102.420,214.629 102.456 M282.458 103.125 C 284.223 103.152,287.110 103.152,288.875 103.125 C 290.640 103.098,289.196 103.076,285.667 103.076 C 282.137 103.076,280.694 103.098,282.458 103.125 M300.125 103.125 C 301.890 103.152,304.777 103.152,306.542 103.125 C 308.306 103.098,306.862 103.076,303.333 103.076 C 299.804 103.076,298.360 103.098,300.125 103.125 M148.000 115.750 C 148.311 116.071,148.603 116.333,148.649 116.333 C 148.695 116.333,148.478 116.071,148.167 115.750 C 147.856 115.429,147.564 115.167,147.518 115.167 C 147.472 115.167,147.689 115.429,148.000 115.750 M226.072 126.667 C 226.072 128.912,226.096 129.831,226.125 128.708 C 226.153 127.585,226.153 125.748,226.125 124.625 C 226.096 123.502,226.072 124.421,226.072 126.667 M174.385 127.583 C 174.386 128.133,174.417 128.338,174.454 128.039 C 174.491 127.739,174.490 127.289,174.452 127.039 C 174.414 126.788,174.384 127.033,174.385 127.583 M147.667 129.885 C 147.667 129.914,147.910 130.158,148.208 130.427 L 148.750 130.917 148.260 130.375 C 147.804 129.870,147.667 129.757,147.667 129.885 M214.795 135.121 C 215.094 135.158,215.544 135.157,215.795 135.119 C 216.045 135.081,215.800 135.051,215.250 135.052 C 214.700 135.053,214.495 135.084,214.795 135.121 M132.313 138.713 C 132.384 138.784,133.524 138.822,134.846 138.796 L 137.250 138.749 134.716 138.666 C 133.323 138.621,132.241 138.642,132.313 138.713 M105.208 138.791 C 105.919 138.822,107.081 138.822,107.792 138.791 C 108.502 138.759,107.921 138.734,106.500 138.734 C 105.079 138.734,104.498 138.759,105.208 138.791 M240.375 138.791 C 241.085 138.822,242.248 138.822,242.958 138.791 C 243.669 138.759,243.088 138.734,241.667 138.734 C 240.246 138.734,239.665 138.759,240.375 138.791 M268.875 138.791 C 269.585 138.822,270.748 138.822,271.458 138.791 C 272.169 138.759,271.587 138.734,270.167 138.734 C 268.746 138.734,268.165 138.759,268.875 138.791 M293.208 138.791 C 293.919 138.822,295.081 138.822,295.792 138.791 C 296.502 138.759,295.921 138.734,294.500 138.734 C 293.079 138.734,292.498 138.759,293.208 138.791 M327.462 154.333 L 327.417 160.333 333.375 160.333 L 339.333 160.333 339.333 166.361 C 339.333 169.676,339.380 172.342,339.437 172.285 C 339.495 172.228,339.486 166.815,339.417 160.257 L 339.293 148.333 333.401 148.333 L 327.508 148.333 327.462 154.333 " stroke="none" fill="#949494" fill-rule="evenodd"></path><path id="path4" d="M309.731 100.667 C 309.731 101.813,309.758 102.281,309.790 101.708 C 309.823 101.135,309.823 100.198,309.790 99.625 C 309.758 99.052,309.731 99.521,309.731 100.667 M212.242 120.375 L 212.250 122.583 219.167 122.586 L 226.083 122.589 219.213 122.543 L 212.343 122.496 212.289 120.331 L 212.235 118.166 212.242 120.375 M231.076 125.333 C 231.076 129.321,231.098 130.952,231.125 128.958 C 231.151 126.965,231.151 123.702,231.125 121.708 C 231.098 119.715,231.076 121.346,231.076 125.333 " stroke="none" fill="#8c8c8c" fill-rule="evenodd"></path></g></svg>